inDegrees=no
num_controls=7
num_derivatives=13
num_iterations=119
num_multipliers=7
num_parameters=0
num_slacks=7
num_states=26
objective=0.448417
objective_accelerations=0.048851
objective_balance=0.007495
objective_effort=0.036470
objective_height=0.350660
objective_ligament=0.004940
solver_duration=1692.034706
status=Solve_Succeeded
success=true
DataType=double
version=3
OpenSimVersion=4.5
endheader
time	/jointset/ground_pelvis/pelvis_tilt/value	/jointset/ground_pelvis/pelvis_tx/value	/jointset/ground_pelvis/pelvis_ty/value	/jointset/hip_l/hip_flexion_l/value	/jointset/hip_l/hip_adduction_l/value	/jointset/hip_l/hip_rotation_l/value	/jointset/back/lumbar_extension/value	/jointset/patellofemoral_l/patellar_flexion_l/value	/jointset/knee_l/knee_flexion_l/value	/jointset/knee_l/knee_adduction_l/value	/jointset/knee_l/knee_rotation_l/value	/jointset/ankle_l/ankle_angle_l/value	/jointset/subtalar_l/subtalar_angle_l/value	/jointset/ground_pelvis/pelvis_tilt/speed	/jointset/ground_pelvis/pelvis_tx/speed	/jointset/ground_pelvis/pelvis_ty/speed	/jointset/hip_l/hip_flexion_l/speed	/jointset/hip_l/hip_adduction_l/speed	/jointset/hip_l/hip_rotation_l/speed	/jointset/back/lumbar_extension/speed	/jointset/patellofemoral_l/patellar_flexion_l/speed	/jointset/knee_l/knee_flexion_l/speed	/jointset/knee_l/knee_adduction_l/speed	/jointset/knee_l/knee_rotation_l/speed	/jointset/ankle_l/ankle_angle_l/speed	/jointset/subtalar_l/subtalar_angle_l/speed	/forceset/tau_hip_flexion_l	/forceset/tau_hip_adduction_l	/forceset/tau_hip_rotation_l	/forceset/tau_knee_flexion_l	/forceset/tau_ankle_angle_l	/forceset/tau_subtalar_angle_l	/forceset/tau_lumbar_extension	lambda_cid13_p0	lambda_cid13_p1	lambda_cid13_p2	lambda_cid13_p3	lambda_cid13_p4	lambda_cid13_p5	lambda_cid14_p0	/jointset/ground_pelvis/pelvis_tilt/accel	/jointset/ground_pelvis/pelvis_tx/accel	/jointset/ground_pelvis/pelvis_ty/accel	/jointset/hip_l/hip_flexion_l/accel	/jointset/hip_l/hip_adduction_l/accel	/jointset/hip_l/hip_rotation_l/accel	/jointset/back/lumbar_extension/accel	/jointset/patellofemoral_l/patellar_flexion_l/accel	/jointset/knee_l/knee_flexion_l/accel	/jointset/knee_l/knee_adduction_l/accel	/jointset/knee_l/knee_rotation_l/accel	/jointset/ankle_l/ankle_angle_l/accel	/jointset/subtalar_l/subtalar_angle_l/accel	gamma_cid13_p0	gamma_cid13_p1	gamma_cid13_p2	gamma_cid13_p3	gamma_cid13_p4	gamma_cid13_p5	gamma_cid14_p0
0.5	-0.4447631503194657	-0.07437734466186519	0.765194778399255	1.255745966048745	-0.3098956470564198	-0.0504557490960536	-0.3289163963045467	0.6774600425403697	0.6774600425403847	-0.1735610712369663	0.1745246224177474	0.03157061453501325	-0.05018193856068829	-0.7385975705566979	-0.2726028922845819	-0.4889701178067093	2.355886164827429	-0.03609982761993284	0.6100455182199261	-0.6194448167620462	1.750062842045484	1.750062842045562	-0.004913054256131023	3.824429130795575e-05	0.2251618101465819	-0.01224491641928957	-0.2430576287189027	0.01870593594561496	-0.02141580508493049	-0.2029868331905028	0.1456679723061645	0.04032742261014874	0.2188820425888604	7.889606508984518	-21.67065530547394	6.222242438794073	-5.486477686504786	-607.29327828084	-58.01590824784541	-28.96722061933519	0.6024105977984572	0.6878227362835231	-0.3172873269548812	-1.47857024070909	0.5860820191296114	-0.2875473150427977	1.73105819456849	-1.055998199892773	-1.055998199892739	0.02763801157424691	-0.02210413105303587	-0.1169486960844113	0.565756634742276	-2.223981733574351e-07	-8.314680935046043e-07	1.123256851151641e-06	2.321441572231209e-08	-3.131454280584386e-07	2.197280278885857e-08	-2.758044294921831e-07
0.51	-0.4521174389799645	-0.07706869597378753	0.7602902128337418	1.279226856581267	-0.3102287604034439	-0.04437001576448649	-0.3350244148100107	0.6949051794743514	0.694905179474359	-0.1736115016546554	0.1745245287551015	0.03381544400196815	-0.05027764924345729	-0.7321678897071164	-0.2656469581181169	-0.4918459683255528	2.339996789830137	-0.03053321912000616	0.607002254566772	-0.6021034413630543	1.738738333649159	1.738738333649228	-0.00515090948297934	-3.776248099614096e-05	0.2237555856670743	-0.006909086435636758	-0.2510063208904657	0.01931762081500421	-0.02153054354851036	-0.2042533818724613	0.1456029915279748	0.04087851761651268	0.2250093396560199	7.635270668915353	-21.75664927731461	6.111659872832019	-5.435332735622387	-611.6052998191942	-57.61971801074881	-27.96160070287713	0.6770514835182792	0.7025555341749404	-0.2582485502511345	-1.688437659721787	0.5403048776687149	-0.327825281985086	1.743993657729138	-1.20454834240369	-1.204548342405024	-0.04623774288418644	0.002230468231857459	-0.1597356758385484	0.5156706127039522	-2.798724582154263e-07	-6.707832052467105e-07	1.396065922257374e-06	8.786356216412366e-08	-3.418433396416043e-07	7.526617196052074e-08	-3.007834714005463e-07
0.52	-0.4594046699009717	-0.07968987258857586	0.7553597858358598	1.30253999005772	-0.3105065367430197	-0.03831773694775744	-0.3409573562724519	0.7122302970877896	0.7122302970877897	-0.1736636587152272	0.1745241909084428	0.03604475595373707	-0.05032036673988433	-0.7251860226583223	-0.2585679528577763	-0.4941424042804796	2.322334753613544	-0.02503242613029886	0.6033546152522835	-0.5844294081574781	1.726058977936781	1.726058977936842	-0.005258382832619967	-1.0592511262092e-05	0.222058307109382	-0.001646279150897094	-0.2589550130620286	0.01992930568439409	-0.02164528201209383	-0.2055199305544193	0.1455380107497853	0.04142961262287735	0.231136636723179	7.375258675010963	-21.84521581923582	6.005561836313604	-5.391228026526824	-616.0195615313115	-57.29953575231183	-26.94753168812653	0.7128478376409951	0.7124369550586377	-0.2014044141715631	-1.833102484569031	0.5729189170857341	-0.4084224473096653	1.797589755885292	-1.326967663103256	-1.326967663103266	0.05371438701578624	-0.001468782645406826	-0.1751595117213728	0.551152094959644	-2.898377835565741e-07	-5.699704801541272e-07	1.448173248489715e-06	1.1405422870559e-07	-3.386835843942915e-07	1.143784316805229e-07	-2.974936916531281e-07
0.53	-0.466619453981862	-0.08223970103259673	0.7504093298332513	1.325667784323642	-0.3107296783967404	-0.03230427577484991	-0.3467119287941828	0.7294217786568848	0.7294217786569085	-0.1737165850179534	0.1745241000299914	0.03825565157529347	-0.05031087059562376	-0.7176830798046067	-0.2513817828740154	-0.4958475720759969	2.302930839940082	-0.01961633162658358	0.5992675342836966	-0.566440356468873	1.712008857511648	1.712008857511649	-0.005330867492645886	-8.815963061269068e-06	0.2200741267460612	0.00352349206214661	-0.2667647279172629	0.02032509746130865	-0.02174160686781269	-0.2069535653678916	0.1456636999198237	0.04179204364729952	0.2371233474587588	7.169414124069657	-21.86352107578494	5.890764333505514	-5.351804515061858	-620.453890909695	-56.88693211883207	-25.93363521467403	0.7821384276599513	0.7241255430631995	-0.1399567422414645	-2.038068782906729	0.5227603000658785	-0.4196256276467525	1.806273833329426	-1.478246834660772	-1.478246834669642	-0.03835095605248347	0.0005007412203605616	-0.2170484384826459	0.4964973122631312	-2.767709961098782e-07	-5.066942285006561e-07	1.392442103193078e-06	1.155724876563624e-07	-3.174867709869661e-07	1.376247021258097e-07	-2.819702200065046e-07
